<mxfile host="app.diagrams.net" modified="2023-05-12T09:35:39.097Z" agent="Mozilla/5.0 (Windows NT 10.0; Win64; x64; rv:109.0) Gecko/20100101 Firefox/112.0" etag="1X5dJMLh5eMQSR9RUUyD" version="21.2.9" type="github">
  <diagram id="C5RBs43oDa-KdzZeNtuy" name="Page-1">
    <mxGraphModel dx="875" dy="504" grid="1" gridSize="10" guides="1" tooltips="1" connect="1" arrows="1" fold="1" page="1" pageScale="1" pageWidth="827" pageHeight="1169" math="0" shadow="0">
      <root>
        <mxCell id="WIyWlLk6GJQsqaUBKTNV-0" />
        <mxCell id="WIyWlLk6GJQsqaUBKTNV-1" parent="WIyWlLk6GJQsqaUBKTNV-0" />
        <mxCell id="Ubb5ROTUOUGo-VrQMUPh-0" value="&lt;div&gt;str1,str2-первая и вторая строка соответственно.&lt;/div&gt;" style="text;html=1;strokeColor=none;fillColor=none;align=center;verticalAlign=middle;whiteSpace=wrap;rounded=0;" vertex="1" parent="WIyWlLk6GJQsqaUBKTNV-1">
          <mxGeometry x="115" y="10" width="170" height="40" as="geometry" />
        </mxCell>
        <mxCell id="Ubb5ROTUOUGo-VrQMUPh-1" value="" style="edgeStyle=orthogonalEdgeStyle;rounded=0;orthogonalLoop=1;jettySize=auto;html=1;" edge="1" parent="WIyWlLk6GJQsqaUBKTNV-1" source="Ubb5ROTUOUGo-VrQMUPh-2" target="Ubb5ROTUOUGo-VrQMUPh-4">
          <mxGeometry relative="1" as="geometry" />
        </mxCell>
        <mxCell id="Ubb5ROTUOUGo-VrQMUPh-2" value="Начало" style="ellipse;whiteSpace=wrap;html=1;aspect=fixed;" vertex="1" parent="WIyWlLk6GJQsqaUBKTNV-1">
          <mxGeometry x="160" y="70" width="80" height="80" as="geometry" />
        </mxCell>
        <mxCell id="Ubb5ROTUOUGo-VrQMUPh-3" value="" style="edgeStyle=orthogonalEdgeStyle;rounded=0;orthogonalLoop=1;jettySize=auto;html=1;" edge="1" parent="WIyWlLk6GJQsqaUBKTNV-1" source="Ubb5ROTUOUGo-VrQMUPh-4" target="Ubb5ROTUOUGo-VrQMUPh-6">
          <mxGeometry relative="1" as="geometry" />
        </mxCell>
        <mxCell id="Ubb5ROTUOUGo-VrQMUPh-4" value="вызваем функцию insertion_sort_vowel, которая сортирует arr в алфавитном порядке,  &lt;font style=&quot;font-size: 12px;&quot;&gt;и по убыванию&amp;nbsp; кол-ва гласных букв&lt;br role=&quot;presentation&quot;&gt;&lt;/font&gt;" style="rounded=1;whiteSpace=wrap;html=1;" vertex="1" parent="WIyWlLk6GJQsqaUBKTNV-1">
          <mxGeometry x="120" y="180" width="160" height="120" as="geometry" />
        </mxCell>
        <mxCell id="Ubb5ROTUOUGo-VrQMUPh-5" value="" style="edgeStyle=orthogonalEdgeStyle;rounded=0;orthogonalLoop=1;jettySize=auto;html=1;" edge="1" parent="WIyWlLk6GJQsqaUBKTNV-1" source="Ubb5ROTUOUGo-VrQMUPh-6" target="Ubb5ROTUOUGo-VrQMUPh-8">
          <mxGeometry relative="1" as="geometry" />
        </mxCell>
        <mxCell id="Ubb5ROTUOUGo-VrQMUPh-6" value="выводим полученную строку" style="whiteSpace=wrap;html=1;rounded=1;" vertex="1" parent="WIyWlLk6GJQsqaUBKTNV-1">
          <mxGeometry x="140" y="320" width="120" height="60" as="geometry" />
        </mxCell>
        <mxCell id="Ubb5ROTUOUGo-VrQMUPh-7" value="" style="edgeStyle=orthogonalEdgeStyle;rounded=0;orthogonalLoop=1;jettySize=auto;html=1;" edge="1" parent="WIyWlLk6GJQsqaUBKTNV-1" source="Ubb5ROTUOUGo-VrQMUPh-8" target="Ubb5ROTUOUGo-VrQMUPh-9">
          <mxGeometry relative="1" as="geometry" />
        </mxCell>
        <mxCell id="Ubb5ROTUOUGo-VrQMUPh-8" value="выводим только те слова, в которых больше чем 2 буквы &quot;а&quot;" style="whiteSpace=wrap;html=1;rounded=1;" vertex="1" parent="WIyWlLk6GJQsqaUBKTNV-1">
          <mxGeometry x="140" y="400" width="120" height="60" as="geometry" />
        </mxCell>
        <mxCell id="Ubb5ROTUOUGo-VrQMUPh-9" value="Конец" style="ellipse;whiteSpace=wrap;html=1;rounded=1;" vertex="1" parent="WIyWlLk6GJQsqaUBKTNV-1">
          <mxGeometry x="160" y="490" width="80" height="80" as="geometry" />
        </mxCell>
      </root>
    </mxGraphModel>
  </diagram>
</mxfile>
